<?xml version="1.0" encoding="iso-8859-1"?>
<!-- Uploaded to: SVG Repo, www.svgrepo.com, Generator: SVG Repo Mixer Tools -->
<svg height="800px" width="800px" version="1.1" id="Layer_1" xmlns="http://www.w3.org/2000/svg" xmlns:xlink="http://www.w3.org/1999/xlink" 
	 viewBox="0 0 512.002 512.002" xml:space="preserve">
<path style="fill:#FA6E51;" d="M512.001,256.006c0,141.395-114.606,255.998-255.996,255.994
	C114.607,512.004,0.001,397.402,0.001,256.006C-0.006,114.61,114.607,0,256.005,0C397.395,0,512.001,114.614,512.001,256.006z"/>
<path style="fill:#E8573F;" d="M498.938,336.73c-0.274-0.311-0.547-0.615-0.878-0.878c-0.34-0.43-0.709-0.798-1.139-1.138
	c-0.34-0.429-233.883-233.971-234.311-234.311c-0.34-0.429-0.708-0.797-1.137-1.137c-1.299-1.638-3.218-2.754-5.471-2.754
	c-3.915,0-7.089,3.17-7.089,7.088v96.317l-30.694-30.694h-0.001l-6.825-6.825c-2.769-2.769-7.254-2.769-10.023,0
	c-2.769,2.769-2.769,7.255,0,10.025l65.859,65.859H142.586c-15.634,0-28.354,12.322-28.354,27.468v122.275
	c0,7.811,3.421,14.831,8.843,19.837c0.373,0.387,0.741,0.771,1.137,1.137c0.373,0.387,99.698,99.728,100.095,100.095
	c0.334,0.347,0.668,0.686,1.017,1.017c10.067,1.202,20.291,1.893,30.683,1.893C369.179,512.003,465.123,438.547,498.938,336.73z"/>
<g>
	<path style="fill:#F4F6F9;" d="M369.417,238.278H142.586c-15.634,0-28.354,12.322-28.354,27.468v122.276
		c0,15.146,12.72,27.468,28.354,27.468h226.831c15.634,0,28.354-12.322,28.354-27.468V265.746
		C397.771,250.601,385.051,238.278,369.417,238.278z M369.417,252.455c1.293,0,2.522,0.215,3.713,0.521l-117.122,117.36
		L139.085,252.915c1.126-0.271,2.286-0.459,3.501-0.459h226.831V252.455z M383.594,388.022c0,7.331-6.358,13.291-14.177,13.291
		H142.586c-7.819,0-14.177-5.961-14.177-13.291V265.746c0-1.052,0.163-2.063,0.411-3.044l122.159,122.676
		c1.329,1.329,3.136,2.083,5.019,2.083h0.004c1.883,0,3.686-0.748,5.019-2.083l122.229-122.475c0.214,0.918,0.343,1.866,0.343,2.844
		v122.275H383.594z"/>
	<path style="fill:#F4F6F9;" d="M250.989,222.039c1.385,1.385,3.198,2.077,5.012,2.077c1.814,0,3.628-0.692,5.012-2.077
		l49.619-49.619c2.769-2.769,2.769-7.254,0-10.023c-2.769-2.769-7.254-2.769-10.023,0l-37.519,37.519v-96.318
		c0-3.918-3.174-7.088-7.088-7.088c-3.914,0-7.088,3.17-7.088,7.088v96.317l-37.519-37.519c-2.769-2.769-7.254-2.769-10.023,0
		c-2.769,2.769-2.769,7.254,0,10.023L250.989,222.039z"/>
</g>
</svg>